<?xml version="1.0" encoding="utf-8"?>
<!-- Generator: Adobe Illustrator 28.2.0, SVG Export Plug-In . SVG Version: 6.00 Build 0)  -->
<svg version="1.1" xmlns="http://www.w3.org/2000/svg" xmlns:xlink="http://www.w3.org/1999/xlink" x="0px" y="0px"
	 viewBox="0 0 1000 1000" style="enable-background:new 0 0 1000 1000;" xml:space="preserve">
<style type="text/css">
	.st0{display:none;}
	.st1{display:inline;}
	.st2{fill:#EEF2F8;}
	.st3{fill:#EB672B;}
	.st4{fill:#4B40C2;}
	.st5{fill:#5CC7CD;}
	.st6{fill:#F5C343;}
	.st7{fill:#173D51;}
	.st8{fill:#489FAF;}
	.st9{fill:#D65762;}
	.st10{fill:#4B4A4B;}
	.st11{fill:url(#SVGID_1_);}
	.st12{fill:#7658F2;}
	.st13{fill-rule:evenodd;clip-rule:evenodd;}
	.st14{fill:#BE283A;}
	.st15{fill:#211816;}
	.st16{fill:#586476;}
	.st17{fill:#429394;}
	.st18{fill:#7460D4;}
	.st19{fill:#479D2C;}
	.st20{fill:#9AADF3;}
	.st21{fill:#69CEA2;}
	.st22{fill:#9DD965;}
	.st23{fill:#00335E;}
	.st24{fill:#221F20;}
	.st25{clip-path:url(#SVGID_00000046326042691679485960000013785554368898148789_);}
	.st26{clip-path:url(#SVGID_00000142149376319420922630000011283426805006852258_);}
	.st27{fill:#FFFFFF;}
	.st28{clip-path:url(#SVGID_00000085244646668979403850000013130978614288547975_);}
	.st29{clip-path:url(#SVGID_00000143610187988039588400000000056547237966385295_);}
	.st30{fill:#00645E;}
	.st31{fill:#37AE8B;}
	.st32{fill:url(#SVGID_00000047758240237045725070000003658417344804804743_);}
	.st33{fill:url(#SVGID_00000051375354449986102270000005554406306062121372_);}
	.st34{fill:url(#SVGID_00000179620493624031249790000006026387125181690037_);}
	.st35{fill:url(#SVGID_00000139993310430144190040000005972953943590308487_);}
	.st36{fill:url(#SVGID_00000098905868720551693330000003236181184889478563_);}
	.st37{fill:url(#SVGID_00000154389437515140501550000001619759048645722536_);}
	.st38{fill:url(#SVGID_00000028285656736364734760000018280235469696728470_);}
	.st39{fill:url(#SVGID_00000096061710188084849570000009770108083595190167_);}
	.st40{fill:url(#SVGID_00000016062463505949669900000018121867711329639871_);}
	.st41{fill:url(#SVGID_00000140711493315502180340000004426334634580774061_);}
	.st42{fill:url(#SVGID_00000103968115463941837290000002373858819643456652_);}
	.st43{fill:url(#SVGID_00000158022354366706532800000000452770130541243521_);}
	.st44{fill:url(#SVGID_00000127031483381083844610000014476574436725644476_);}
	.st45{fill:url(#SVGID_00000062188441431006286850000018245435991952912569_);}
</style>
<g id="Layer_1" class="st0">
	<g class="st1">
		<path class="st2" d="M141,141v718h718V141H141z M753,753H247V247h506V753z"/>
	</g>
</g>
<g id="Layer_2">
	<g>
		<g id="logo-icon">
			<path class="st3" d="M187.6,456.5c2.9,1.4,5.9,2.6,9,3.6c6.6,2.1,7.6,1.2,4.7-4.7c-1.2-2.5-2.6-4.9-4.1-7.2
				c-2.9-4.5-4.9-6.1-9.5-2.3c-0.9,0.8-1.8,1.6-2.6,2.5C182.5,451.5,182.5,454,187.6,456.5z"/>
			<path class="st4" d="M253.7,583.3c-1.1-3.3-2.5-6.4-4.1-9.5c-3.4-6.6-4.8-6.6-7.1,0c-1,2.8-1.8,5.6-2.4,8.5
				c-1.2,5.6-1,8.3,5.4,8.8c1.3,0.1,2.6,0.1,3.8,0.1C253.9,590.9,255.7,589,253.7,583.3z"/>
			<path class="st5" d="M344.1,535.3c-2.6-3-5-6.3-7.1-9.6c-4.6-7.3-3.9-8.6,4.1-7.1c3.4,0.7,6.7,1.5,9.9,2.5
				c6.3,2,8.9,3.8,5.7,10.6c-0.6,1.3-1.4,2.6-2.2,3.9C351.7,539.9,348.7,540.6,344.1,535.3z"/>
			<path class="st6" d="M301.1,420.1c-2.3,2-4.7,3.8-7.3,5.4c-5.5,3.5-6.6,2.9-5.4-3.1c0.5-2.5,1.1-5,1.9-7.4c1.5-4.7,2.9-6.7,8-4.3
				c1,0.5,2,1,2.9,1.6C304.5,414.4,305.1,416.7,301.1,420.1z"/>
			<path class="st5" d="M204,530c-25.6,15.2-33-4-30.4-29.2c4-39.5,30.4-40.1,42.8-11.9C223.9,505.9,221.1,519.9,204,530z"/>
			<path class="st3" d="M233.8,557.4c0,4.3-0.2,8.5-0.5,12.7c-0.7,8.6-6.3,15.7-17.6,8.6c-4.6-2.9-9-6.3-13.1-9.9
				c-9.4-8.5-11.8-16.8,0-27.1c3-2.6,6-5.1,9.2-7.5c14.7-11,20.4-3.6,21.6,11.9C233.7,549.8,233.8,553.6,233.8,557.4z"/>
			<path class="st6" d="M319.4,549c-9.1-7.7-18.8-14.9-29-21.3c-21.9-13.7-26-11.5-21.4,12.2c2,10,4.5,19.8,7.6,29.4
				c6.1,18.7,11.5,26.4,31.8,17c4-1.9,7.9-4,11.7-6.4C333.1,571.5,335.4,562.6,319.4,549z"/>
			<path class="st3" d="M308.8,452.5c-2.8,3.7-5.5,7.4-8.1,11.2c-15.3,22.6-13.8,23.5,8.1,33c7.9,3.4,16,6.5,24.3,9.1
				c30.3,9.5,35-1.1,26.1-27.4c-2.5-7.5-6-14.6-10.3-21C335.4,437.2,324.4,432,308.8,452.5z"/>
			<path class="st4" d="M261,409c-7.6,0.7-14.9,2.4-21.9,4.9c-18.9,6.7-16.1,14.7-5.7,29.8c2.2,3.1,4.4,6.2,6.7,9.2
				c12.1,16,15.3,19.5,25.2-3.1c3.2-7.4,6.1-15,8.6-22.7C278,413.9,277.4,407.4,261,409z"/>
		</g>
		<g id="logo-en">
			<path class="st3" d="M800.5,472.7L772,504l0-61.7c0-2.1-2.1-3.6-4.1-2.9l-14.6,5.5c-1.2,0.4-2,1.6-2,2.9v102.7
				c0,1.7,1.4,3.1,3.1,3.1h14.6c1.7,0,3.1-1.4,3.1-3.1v-32.7l30.4,34.7c0.6,0.7,1.4,1,2.3,1h19.1c2.6,0,4-3.1,2.3-5.1l-33.9-38.1
				l31.2-33.5c1.8-2,0.4-5.1-2.2-5.1h-18.5C801.9,471.7,801.1,472,800.5,472.7z"/>
			<path class="st3" d="M692.9,556.2c-23.8,0-43.1-20.1-43.1-44.8c0-23.3,18.6-41.6,42.4-41.6c25,0,43.1,18.2,43.1,43.2
				C735.3,538,717.5,556.2,692.9,556.2z M693.6,536.8c12.4,0,21.4-9.8,21.4-23.2c0-14.3-8.8-24.3-21.4-24.3
				c-13.1,0-22.2,9.6-22.2,23.4C671.4,526.5,680.9,536.8,693.6,536.8z"/>
			<path class="st3" d="M595,556.2c-23.7,0-43.1-20.1-43.1-44.8c0-23.3,18.6-41.6,42.4-41.6c25,0,43.1,18.2,43.1,43.2
				C637.4,538,619.5,556.2,595,556.2z M595.6,536.8c12.4,0,21.4-9.8,21.4-23.2c0-14.3-8.8-24.3-21.4-24.3
				c-13.1,0-22.2,9.6-22.2,23.4C573.4,526.7,582.7,536.8,595.6,536.8z"/>
			<path class="st3" d="M515.3,551l0.1-103.4c0-1.3,0.8-2.4,2-2.9l14.4-5.4c2-0.8,4.2,0.7,4.2,2.9L535.8,551c0,1.7-1.4,3.1-3.1,3.1
				h-14.4C516.6,554.1,515.3,552.7,515.3,551z"/>
			<path class="st3" d="M475.1,472.7L446.6,504l0-61.7c0-2.1-2.1-3.6-4.1-2.9l-14.6,5.5c-1.2,0.4-2,1.6-2,2.9v102.7
				c0,1.7,1.4,3.1,3.1,3.1h14.6c1.7,0,3.1-1.4,3.1-3.1v-32.7l30.4,34.7c0.6,0.7,1.4,1,2.3,1h19.1c2.6,0,4-3.1,2.3-5.1l-33.9-38.1
				l31.2-33.5c1.8-2,0.4-5.1-2.2-5.1h-18.4C476.6,471.7,475.7,472,475.1,472.7z"/>
		</g>
	</g>
</g>
</svg>